<?xml version="1.0" encoding="utf-8"?>
<!-- Generator: Adobe Illustrator 20.1.0, SVG Export Plug-In . SVG Version: 6.00 Build 0)  -->
<svg version="1.1" id="Layer_1" xmlns="http://www.w3.org/2000/svg" xmlns:xlink="http://www.w3.org/1999/xlink" x="0px" y="0px"
	 viewBox="0 0 77 99" style="enable-background:new 0 0 77 99;" xml:space="preserve">
<style type="text/css">
	.st0{fill:#7600FE;}
	.st1{fill:#008080;}
	.st2{fill:#29F036;}
</style>
<g>
	<path class="st0" d="M40.8,23.6c-1.8,0-3.3-1.5-3.3-3.3v-9.1c0-1.8,1.5-3.3,3.3-3.3c1.8,0,3.3,1.5,3.3,3.3v9.1
		C44.1,22.2,42.6,23.6,40.8,23.6z M40.8,10.6c-0.3,0-0.6,0.3-0.6,0.6v9.1c0,0.3,0.3,0.6,0.6,0.6c0.3,0,0.6-0.3,0.6-0.6v-9.1
		C41.4,10.9,41.1,10.6,40.8,10.6z"/>
	<path class="st1" d="M40.8,23.6c-1.8,0-3.3-1.5-3.3-3.3v-9.1c0-1.8,1.5-3.3,3.3-3.3c1.8,0,3.3,1.5,3.3,3.3v9.1
		C44.1,22.2,42.6,23.6,40.8,23.6z M40.8,10.6c-0.3,0-0.6,0.3-0.6,0.6v9.1c0,0.3,0.3,0.6,0.6,0.6c0.3,0,0.6-0.3,0.6-0.6v-9.1
		C41.4,10.9,41.1,10.6,40.8,10.6z"/>
	<path class="st0" d="M28.9,25.6c-0.9,0-1.7-0.3-2.3-1l-6.5-6.5c-0.6-0.6-1-1.5-1-2.3s0.3-1.7,1-2.3c1.2-1.2,3.4-1.2,4.7,0l6.5,6.5
		c0.6,0.6,1,1.5,1,2.3s-0.3,1.7-1,2.3c0,0,0,0,0,0C30.7,25.2,29.8,25.6,28.9,25.6z M30.3,23.6L30.3,23.6L30.3,23.6z M22.5,15.2
		c-0.1,0-0.3,0-0.4,0.2c-0.2,0.2-0.2,0.3-0.2,0.4s0,0.3,0.2,0.4l6.5,6.5c0.2,0.2,0.3,0.2,0.4,0.2c0.1,0,0.3,0,0.4-0.2
		c0.2-0.2,0.2-0.3,0.2-0.4s0-0.3-0.2-0.4l-6.5-6.5C22.8,15.2,22.6,15.2,22.5,15.2z"/>
	<path class="st1" d="M28.9,25.6c-0.9,0-1.7-0.3-2.3-1l-6.5-6.5c-0.6-0.6-1-1.5-1-2.3s0.3-1.7,1-2.3c1.2-1.2,3.4-1.2,4.7,0l6.5,6.5
		c0.6,0.6,1,1.5,1,2.3s-0.3,1.7-1,2.3c0,0,0,0,0,0C30.7,25.2,29.8,25.6,28.9,25.6z M30.3,23.6L30.3,23.6L30.3,23.6z M22.5,15.2
		c-0.1,0-0.3,0-0.4,0.2c-0.2,0.2-0.2,0.3-0.2,0.4s0,0.3,0.2,0.4l6.5,6.5c0.2,0.2,0.3,0.2,0.4,0.2c0.1,0,0.3,0,0.4-0.2
		c0.2-0.2,0.2-0.3,0.2-0.4s0-0.3-0.2-0.4l-6.5-6.5C22.8,15.2,22.6,15.2,22.5,15.2z"/>
	<path class="st0" d="M52.2,25.6c-0.9,0-1.7-0.3-2.3-1c0,0,0,0,0,0c-1.3-1.3-1.3-3.4,0-4.7l6.5-6.5c0.6-0.6,1.5-1,2.3-1h0
		c0.9,0,1.7,0.3,2.3,1c0.6,0.6,1,1.5,1,2.3s-0.3,1.7-1,2.3l-6.5,6.5C53.9,25.2,53.1,25.6,52.2,25.6z M51.7,22.7
		c0.2,0.2,0.3,0.2,0.4,0.2s0.3,0,0.4-0.2l6.5-6.5c0.2-0.2,0.2-0.3,0.2-0.4s0-0.3-0.2-0.4c-0.2-0.2-0.3-0.2-0.4-0.2s-0.3,0-0.4,0.2
		l-6.5,6.5C51.5,22.1,51.5,22.5,51.7,22.7z"/>
	<path class="st1" d="M52.2,25.6c-0.9,0-1.7-0.3-2.3-1c0,0,0,0,0,0c-1.3-1.3-1.3-3.4,0-4.7l6.5-6.5c0.6-0.6,1.5-1,2.3-1h0
		c0.9,0,1.7,0.3,2.3,1c0.6,0.6,1,1.5,1,2.3s-0.3,1.7-1,2.3l-6.5,6.5C53.9,25.2,53.1,25.6,52.2,25.6z M51.7,22.7
		c0.2,0.2,0.3,0.2,0.4,0.2s0.3,0,0.4-0.2l6.5-6.5c0.2-0.2,0.2-0.3,0.2-0.4s0-0.3-0.2-0.4c-0.2-0.2-0.3-0.2-0.4-0.2s-0.3,0-0.4,0.2
		l-6.5,6.5C51.5,22.1,51.5,22.5,51.7,22.7z"/>
	<g id="Group-32" transform="translate(0.000000, 1.800587)">
		<g id="Combined-Shape_4_">
			<path class="st1" d="M31.7,53h-8.1c-3.7,0-6.7-3-6.7-6.8V34.4c0-2.2,1.8-3.9,3.9-3.9c1.6,0,2.9,0.9,3.5,2.2
				c0.6-1.3,2-2.2,3.5-2.2c1.4,0,2.6,0.7,3.3,1.8c0.7-1.1,1.9-1.8,3.3-1.8c2.2,0,3.9,1.8,3.9,3.9v11.9C38.4,50,35.4,53,31.7,53z
				 M20.7,33.1c-0.7,0-1.2,0.6-1.2,1.2v11.9c0,2.2,1.8,4.1,4,4.1h8.1c2.2,0,4-1.8,4-4.1V34.4c0-0.7-0.6-1.2-1.2-1.2
				s-1.2,0.6-1.2,1.2v4.8c0,0.7-0.6,1.4-1.4,1.4h-1.4c-0.7,0-1.4-0.6-1.4-1.4v-4.8c0-0.7-0.6-1.2-1.2-1.2c-0.7,0-1.2,0.6-1.2,1.2
				v4.8c0,0.7-0.6,1.4-1.4,1.4h-1.9c-0.7,0-1.4-0.6-1.4-1.4v-4.8C22,33.7,21.4,33.1,20.7,33.1z"/>
		</g>
		<g id="Rectangle-30">
			<rect x="24.9" y="52.5" class="st2" width="6.3" height="5.4"/>
			<path class="st1" d="M31.2,59.2h-6.3c-0.7,0-1.4-0.6-1.4-1.4v-5.4c0-0.7,0.6-1.4,1.4-1.4h6.3c0.7,0,1.4,0.6,1.4,1.4v5.4
				C32.6,58.6,31.9,59.2,31.2,59.2z M26.3,56.5h3.6v-2.7h-3.6V56.5z"/>
		</g>
		<g id="Rectangle-30-Copy">
			<path class="st1" d="M30.3,86.3h-4.5c-1.7,0-3.1-1.4-3.1-3.1V59.7c0-1.7,1.4-3.1,3.1-3.1h4.5c1.7,0,3.2,1.4,3.2,3.1v23.4
				C33.5,84.8,32,86.3,30.3,86.3z M25.8,59.2c-0.2,0-0.4,0.2-0.4,0.4v23.4c0,0.2,0.2,0.4,0.4,0.4h4.5c0.2,0,0.5-0.2,0.5-0.4V59.7
				c0-0.2-0.2-0.4-0.5-0.4H25.8z"/>
		</g>
	</g>
	<g id="Path-796">
		<path class="st2" d="M55.5,67.8c-0.5,0-0.9-0.4-0.9-0.9V42.1c0.1-0.6,0-2-0.6-2.7c-0.3-0.3-0.7-0.5-1.2-0.5h-2.4
			c-0.5,0-0.9-0.4-0.9-0.9s0.4-0.9,0.9-0.9h2.4c1,0,1.9,0.4,2.6,1.1c1.3,1.4,1.1,3.7,1,4l0,24.7C56.4,67.4,56,67.8,55.5,67.8z"/>
	</g>
	<g id="Rectangle-30-Copy-2">
		<path class="st1" d="M56.4,87.2h-0.9c-2.7,0-4.9-2.2-4.9-4.9v-4.5c0-0.7,0.6-1.4,1.3-1.4s1.3,0.6,1.3,1.4v4.5c0,1.2,1,2.2,2.3,2.2
			h0.9c1.2,0,2.3-1,2.3-2.2V67.5L52.4,70c-0.7,0.3-1.5-0.1-1.8-0.8s0.1-1.5,0.8-1.8l8.1-3.2c0.4-0.2,0.9-0.1,1.3,0.1
			s0.6,0.7,0.6,1.1v16.7C61.3,84.9,59.1,87.2,56.4,87.2z"/>
	</g>
	<g id="Oval-43">
		<ellipse class="st1" cx="51.5" cy="72.7" rx="1.3" ry="1.4"/>
	</g>
	<g id="Path-795">
		<path class="st1" d="M52.1,70.1c-0.3,0-0.5-0.1-0.8-0.2c-0.4-0.3-0.6-0.7-0.6-1.1v-7.3h-3.3c-0.7,0-1.3-0.6-1.3-1.4V37.2
			c0-3.7,3-6.8,6.7-6.8h2c1.8,0,3.5,0.7,4.8,2c1.3,1.3,1.9,3,1.9,4.8l-0.4,28.4c0,0.5-0.3,1-0.8,1.2L52.6,70
			C52.4,70,52.2,70.1,52.1,70.1z M48.8,58.7h3.3c0.7,0,1.3,0.6,1.3,1.4v6.7l5-2l0.4-27.5c0-1.1-0.4-2.1-1.1-2.9
			c-0.7-0.8-1.8-1.2-2.8-1.2h-2c-2.2,0-4,1.8-4,4.1V58.7z"/>
	</g>
</g>
</svg>
