<svg xmlns="http://www.w3.org/2000/svg" width="26" height="26" viewBox="0 0 26 26">
  <metadata><?xpacket begin="﻿" id="W5M0MpCehiHzreSzNTczkc9d"?>
<x:xmpmeta xmlns:x="adobe:ns:meta/" x:xmptk="Adobe XMP Core 5.6-c142 79.160924, 2017/07/13-01:06:39        ">
   <rdf:RDF xmlns:rdf="http://www.w3.org/1999/02/22-rdf-syntax-ns#">
      <rdf:Description rdf:about=""/>
   </rdf:RDF>
</x:xmpmeta>
                                                                                                    
                                                                                                    
                                                                                                    
                                                                                                    
                                                                                                    
                                                                                                    
                                                                                                    
                                                                                                    
                                                                                                    
                                                                                                    
                                                                                                    
                                                                                                    
                                                                                                    
                                                                                                    
                                                                                                    
                                                                                                    
                                                                                                    
                                                                                                    
                                                                                                    
                                                                                                    
                           
<?xpacket end="w"?></metadata>
<defs>
    <style>
      .cls-1 {
        fill: #ffcc02;
        fill-rule: evenodd;
      }
    </style>
  </defs>
  <path id="close_copy" data-name="close copy" class="cls-1" d="M1161.99,280.018l10.59-10.578a1.438,1.438,0,0,0,.42-1.033,1.363,1.363,0,0,0-.43-0.967,1.417,1.417,0,0,0-1.02-.416,1.354,1.354,0,0,0-.97.428L1160,278.025l-10.56-10.6a1.418,1.418,0,0,0-1.03-.422,1.368,1.368,0,0,0-.98.435,1.429,1.429,0,0,0,.02,1.986l10.56,10.6L1147.42,290.6a1.4,1.4,0,0,0-.42,1.032,1.367,1.367,0,0,0,.43.969,1.448,1.448,0,0,0,2.01-.007L1160,282.012l10.56,10.579a1.4,1.4,0,0,0,1.01.409,1.416,1.416,0,0,0,1.43-1.442,1.365,1.365,0,0,0-.43-0.967Z" transform="translate(-1147 -267)"/>
</svg>
