<svg xmlns="http://www.w3.org/2000/svg" width="20.03" height="23" viewBox="0 0 20.03 23">
  <metadata><?xpacket begin="﻿" id="W5M0MpCehiHzreSzNTczkc9d"?>
<x:xmpmeta xmlns:x="adobe:ns:meta/" x:xmptk="Adobe XMP Core 5.6-c142 79.160924, 2017/07/13-01:06:39        ">
   <rdf:RDF xmlns:rdf="http://www.w3.org/1999/02/22-rdf-syntax-ns#">
      <rdf:Description rdf:about=""/>
   </rdf:RDF>
</x:xmpmeta>
                                                                                                    
                                                                                                    
                                                                                                    
                                                                                                    
                                                                                                    
                                                                                                    
                                                                                                    
                                                                                                    
                                                                                                    
                                                                                                    
                                                                                                    
                                                                                                    
                                                                                                    
                                                                                                    
                                                                                                    
                                                                                                    
                                                                                                    
                                                                                                    
                                                                                                    
                                                                                                    
                           
<?xpacket end="w"?></metadata>
<defs>
    <style>
      .cls-1 {
        fill: #ffcc02;
        fill-rule: evenodd;
      }
    </style>
  </defs>
  <path id="exit" class="cls-1" d="M1207.35,81.528a1.24,1.24,0,0,0-1.24,1.272v2.652h-8.62V67.545h8.62V70.2a1.24,1.24,0,1,0,2.48,0V66.273A1.246,1.246,0,0,0,1207.35,65h-11.1a1.24,1.24,0,0,0-1.24,1.272V86.723A1.24,1.24,0,0,0,1196.25,88h11.07a1.31,1.31,0,0,0,1.27-1.272V82.8A1.246,1.246,0,0,0,1207.35,81.528Zm7.31-5.872-3.76-4.1a1.2,1.2,0,0,0-1.74,0,1.321,1.321,0,0,0-.03,1.748l1.76,1.936h-9.32a1.272,1.272,0,0,0,0,2.543h9.32l-1.77,1.939a1.305,1.305,0,0,0-.32.912,1.274,1.274,0,0,0,.39.861,1.206,1.206,0,0,0,.84.35,1.179,1.179,0,0,0,.91-0.415l3.71-4.025A1.281,1.281,0,0,0,1214.66,75.657Z" transform="translate(-1195 -65)"/>
</svg>
