<svg xmlns="http://www.w3.org/2000/svg" width="46" height="46" viewBox="0 0 46 46">
  <metadata><?xpacket begin="﻿" id="W5M0MpCehiHzreSzNTczkc9d"?>
<x:xmpmeta xmlns:x="adobe:ns:meta/" x:xmptk="Adobe XMP Core 5.6-c142 79.160924, 2017/07/13-01:06:39        ">
   <rdf:RDF xmlns:rdf="http://www.w3.org/1999/02/22-rdf-syntax-ns#">
      <rdf:Description rdf:about=""/>
   </rdf:RDF>
</x:xmpmeta>
                                                                                                    
                                                                                                    
                                                                                                    
                                                                                                    
                                                                                                    
                                                                                                    
                                                                                                    
                                                                                                    
                                                                                                    
                                                                                                    
                                                                                                    
                                                                                                    
                                                                                                    
                                                                                                    
                                                                                                    
                                                                                                    
                                                                                                    
                                                                                                    
                                                                                                    
                                                                                                    
                           
<?xpacket end="w"?></metadata>
<defs>
    <style>
      .cls-1 {
        fill: #ffcc02;
        fill-rule: evenodd;
      }
    </style>
  </defs>
  <path id="money" class="cls-1" d="M197,682.789a2.5,2.5,0,0,1,0-4.994h0a2.5,2.5,0,0,1,2.029,1.048,2.21,2.21,0,1,0,3.6-2.563,6.888,6.888,0,0,0-3.421-2.544v-1.682a2.211,2.211,0,0,0-4.421,0v1.68A6.918,6.918,0,0,0,197,687.21a2.5,2.5,0,0,1-.005,4.994h0a2.5,2.5,0,0,1-2.03-1.049,2.211,2.211,0,0,0-3.6,2.564,6.9,6.9,0,0,0,3.422,2.544v1.683a2.214,2.214,0,0,0,2.211,2.208h0a2.214,2.214,0,0,0,2.206-2.209v-1.68a6.918,6.918,0,0,0,4.575-7.934A6.941,6.941,0,0,0,197,682.789ZM197,662a23,23,0,1,0,23,23A23.028,23.028,0,0,0,197,662Zm0,42.366A19.365,19.365,0,1,1,216.364,685,19.387,19.387,0,0,1,197,704.364Z" transform="translate(-174 -662)"/>
</svg>
