<svg xmlns="http://www.w3.org/2000/svg" width="20" height="22" viewBox="0 0 20 22">
  <metadata><?xpacket begin="﻿" id="W5M0MpCehiHzreSzNTczkc9d"?>
<x:xmpmeta xmlns:x="adobe:ns:meta/" x:xmptk="Adobe XMP Core 5.6-c142 79.160924, 2017/07/13-01:06:39        ">
   <rdf:RDF xmlns:rdf="http://www.w3.org/1999/02/22-rdf-syntax-ns#">
      <rdf:Description rdf:about=""/>
   </rdf:RDF>
</x:xmpmeta>
                                                                                                    
                                                                                                    
                                                                                                    
                                                                                                    
                                                                                                    
                                                                                                    
                                                                                                    
                                                                                                    
                                                                                                    
                                                                                                    
                                                                                                    
                                                                                                    
                                                                                                    
                                                                                                    
                                                                                                    
                                                                                                    
                                                                                                    
                                                                                                    
                                                                                                    
                                                                                                    
                           
<?xpacket end="w"?></metadata>
<defs>
    <style>
      .cls-1 {
        fill: #ffcc02;
        fill-rule: evenodd;
      }
    </style>
  </defs>
  <path id="profile" class="cls-1" d="M1122.05,77.787a6.517,6.517,0,0,0,2.58-5.2,6.63,6.63,0,1,0-10.68,5.2,9.922,9.922,0,0,0-5.95,9.091A1.125,1.125,0,0,0,1109.13,88c0.01,0,.01,0,0.02,0l0.03,0h17.67l0.02,0,0.02,0a1.115,1.115,0,0,0,1.11-1.127A9.961,9.961,0,0,0,1122.05,77.787Zm3.63,8.055h-15.33A7.738,7.738,0,0,1,1125.68,85.842Zm-3.27-13.263a4.375,4.375,0,1,1-4.38-4.351A4.394,4.394,0,0,1,1122.41,72.579Z" transform="translate(-1108 -66)"/>
</svg>
