<?xml version="1.0" encoding="utf-8"?>
<!-- Generator: Adobe Illustrator 20.1.0, SVG Export Plug-In . SVG Version: 6.00 Build 0)  -->
<svg version="1.1" id="Layer_1" xmlns="http://www.w3.org/2000/svg" xmlns:xlink="http://www.w3.org/1999/xlink" x="0px" y="0px"
	 viewBox="0 0 111 93" style="enable-background:new 0 0 111 93;" xml:space="preserve">
<style type="text/css">
	.st0{fill:#008080;}
	.st1{fill:#29F036;}
</style>
<g id="Group-4" transform="translate(485.500000, 142.000000)">
	<g id="Group-13">
		<g id="Fill-5">
			<path class="st0" d="M-424.7-105.9c-1.5-2.1-7.3-2.2-8.6-2.2c-1.3,0-7.1,0.1-8.6,2.2l1.6,1.9c0,0,2.1-1.3,7.1-1.3
				c5,0,7.1,1.3,7.1,1.3L-424.7-105.9z"/>
		</g>
		<g id="Combined-Shape">
			<path class="st1" d="M-424.7-119c0,4.3-3.5,7.8-7.8,7.8c-4.3,0-7.8-3.5-7.8-7.8s3.5-7.8,7.8-7.8
				C-428.2-126.9-424.7-123.4-424.7-119L-424.7-119z"/>
		</g>
		<g id="Stroke-11_1_">
			<path class="st0" d="M-416.5-65.4h-6.3c-2.4,0-4.6-2.2-5.6-5.6c0-0.1,0-0.1,0-0.2l-0.1-1c-4.2,0.4-8.6,0.3-12.9-0.7l-0.2,1.8
				c0,0.1,0,0.1,0,0.2c-1,3.4-3.1,5.6-5.6,5.6h-6.3c-2.6,0-4.6-2.6-4.6-5.9c0-0.1,0-0.2,0-0.3l2.1-8.2c-2.6-2.1-4.8-4.4-6.4-6.9
				h-2.6c-3.1,0-5.7-2.8-5.7-6.2v-3.6c0-3.4,2.6-6.2,5.7-6.2h0.5c0.7-2.4,1.9-4.6,3.4-6.7c-0.3-2.8-0.7-6.5-1-9.1
				c-0.3-1.9,0.2-3.3,1.2-4c1.6-1.1,3.6-0.1,4,0.1c0.1,0.1,0.3,0.2,0.4,0.3l4.8,5.3c3.2-1.5,6.8-2.5,10.9-3c0.7-0.1,1.4,0.4,1.5,1.2
				c0.1,0.7-0.4,1.4-1.2,1.5c-4.1,0.6-7.8,1.6-10.9,3.2c-0.5,0.3-1.2,0.2-1.6-0.3l-5.3-5.9c-0.4-0.2-0.9-0.3-1-0.2
				c0,0-0.2,0.3,0,1.4c0.4,2.7,0.8,6.8,1.1,9.7c0,0.4-0.1,0.7-0.3,1c-1.7,2.1-2.9,4.5-3.6,7.1c-0.2,0.6-0.7,1-1.3,1h-1.5
				c-1.6,0-3,1.6-3,3.5v3.6c0,1.9,1.3,3.5,3,3.5h3.3c0.5,0,0.9,0.2,1.2,0.7c1.6,2.6,3.9,5.2,6.8,7.3c0.4,0.3,0.6,0.9,0.5,1.4
				l-2.3,8.9c0.1,1.8,1,3.1,1.9,3.1h6.3c1.1,0,2.3-1.5,2.9-3.5l0.4-3.2c0.1-0.4,0.3-0.7,0.6-0.9c0.3-0.2,0.7-0.3,1.1-0.2
				c4.9,1.4,10,1.5,14.7,0.9c0.7-0.1,1.4,0.4,1.5,1.2l0.3,2.3c0.6,2,1.8,3.5,2.9,3.5h6.3c0.9,0,1.9-1.3,1.9-3.1l-1.6-6.1
				c-0.2-0.6,0.1-1.2,0.7-1.5c7.3-4,11.8-10.7,11.8-17.5c0-0.7,0.6-1.4,1.4-1.4s1.4,0.6,1.4,1.4c0,7.5-4.7,14.9-12.3,19.4l1.4,5.3
				c0,0.1,0,0.2,0,0.3C-411.9-68-413.9-65.4-416.5-65.4z"/>
		</g>
		<g id="Fill-13">
			<path class="st0" d="M-432.5-109.9c-5.1,0-9.2-4.1-9.2-9.2s4.1-9.2,9.2-9.2s9.2,4.1,9.2,9.2S-427.4-109.9-432.5-109.9z
				 M-432.5-125.5c-3.6,0-6.5,2.9-6.5,6.5s2.9,6.5,6.5,6.5s6.5-2.9,6.5-6.5S-428.9-125.5-432.5-125.5z"/>
		</g>
		<g id="Path-330">
			<path class="st0" d="M-396.4-89.2c-1.5,0-3.2-0.9-3.7-2.6c-0.2-0.7-0.2-1.5,0.2-2.3c-0.8,0.2-1.5,0.4-2,0.6
				c-0.7,0.3-1.5,0-1.8-0.7c-0.3-0.7,0-1.5,0.7-1.8c0.4-0.2,3.1-1.2,5.6-1c1.6-1.2,4-2.4,7.6-3.6c0.7-0.2,1.5,0.1,1.7,0.8
				c0.2,0.7-0.1,1.5-0.8,1.7c-2.5,0.9-4.3,1.7-5.6,2.4c0.6,0.6,1.1,1.5,1.1,3c0.1,1.8-1,3.2-2.7,3.5
				C-396-89.2-396.2-89.2-396.4-89.2z M-396.6-94c-0.8,0.7-0.9,1.3-0.9,1.6c0.1,0.4,0.7,0.7,1.2,0.6c0.2,0,0.4-0.1,0.4-0.6
				C-396-93.5-396.3-93.8-396.6-94C-396.6-94-396.6-94-396.6-94z"/>
		</g>
		<g id="Path-331">
			<path class="st1" d="M-454.8-99.6c-0.2,0-0.3,0-0.5,0c-2.8-0.3-4.3-3.1-4.5-3.4c-0.3-0.7-0.1-1.5,0.6-1.8
				c0.7-0.3,1.5-0.1,1.8,0.6l0,0c0.3,0.5,1.2,1.9,2.4,2c1,0.1,2.1-0.9,2.8-1.7c0.5-0.6,1.3-0.6,1.9-0.2c0.6,0.5,0.6,1.3,0.2,1.9
				C-451.6-100.5-453.2-99.6-454.8-99.6z"/>
		</g>
		<g id="Path-331_1_">
			<path class="st0" d="M-454.8-97.5c-0.2,0-0.3,0-0.5,0c-2.8-0.3-4.3-3.1-4.5-3.4c-0.3-0.7-0.1-1.5,0.6-1.8
				c0.7-0.3,1.5-0.1,1.8,0.6l0,0c0.3,0.5,1.2,1.9,2.4,2c1,0.1,2.1-0.9,2.8-1.7c0.5-0.6,1.3-0.6,1.9-0.2c0.6,0.5,0.6,1.3,0.2,1.9
				C-451.6-98.4-453.2-97.5-454.8-97.5z"/>
		</g>
		<g id="Path-591">
			<path class="st0" d="M-403.7-88.4c-0.2,0-0.4-0.1-0.6-0.2c-0.7-0.4-0.9-1.2-0.5-1.8c0,0,1-2,1.1-4.7c0.1-3.3-0.8-8.2-3.9-12.2
				c-5.2-6.8-9.5-7.3-9.5-7.3c-0.7-0.1-1.3-0.7-1.2-1.5c0.1-0.7,0.7-1.3,1.5-1.2c0.2,0,5.5,0.6,11.4,8.4c3.5,4.6,4.6,10.2,4.4,14
				c-0.1,3.3-1.4,5.7-1.5,5.8C-402.7-88.6-403.2-88.4-403.7-88.4z"/>
		</g>
		<g id="Oval-16_1_">
			<ellipse class="st0" cx="-420.6" cy="-117.3" rx="1.3" ry="1.3"/>
		</g>
	</g>
	<g id="Path-589_1_">
		<path class="st1" d="M-434.2-78.3c-3.5,0-5.3-1-5.4-1c-0.7-0.4-0.9-1.2-0.5-1.8c0.4-0.6,1.2-0.9,1.8-0.5c0.1,0,3.7,1.8,11.1-0.5
			c7.4-2.3,8.7-6.5,8.7-6.5c0.2-0.7,0.9-1.1,1.7-0.9c0.7,0.2,1.1,0.9,0.9,1.7c-0.1,0.2-1.6,5.6-10.5,8.4
			C-429.5-78.7-432.2-78.3-434.2-78.3z"/>
	</g>
	<g id="Oval-18">
		<ellipse class="st1" cx="-414.1" cy="-93.2" rx="1.7" ry="1.7"/>
	</g>
</g>
</svg>
