<?xml version="1.0" encoding="utf-8"?>
<!-- Generator: Adobe Illustrator 20.1.0, SVG Export Plug-In . SVG Version: 6.00 Build 0)  -->
<svg version="1.1" id="Layer_1" xmlns="http://www.w3.org/2000/svg" xmlns:xlink="http://www.w3.org/1999/xlink" x="0px" y="0px"
	 viewBox="0 0 93 69" style="enable-background:new 0 0 93 69;" xml:space="preserve">
<style type="text/css">
	.st0{fill:#008080;}
	.st1{fill:#29F036;}
</style>
<g id="Group-15" transform="translate(606.300000, 313.252199)">
	<g id="Group-34" transform="translate(0.700000, 0.703812)">
		<g id="Group-33" transform="translate(36.000000, 20.500000) scale(-1, 1) translate(-36.000000, -20.500000) ">
			<g id="Path-797">
				<path class="st0" d="M613-282c0.7,0,1.3-0.6,1.3-1.4v-7.3c0-3.3,2.7-6,6-6H648c3.3,0,6,2.7,6,6v7.3c0,0.7,0.6,1.4,1.3,1.4
					c0.7,0,1.3-0.6,1.3-1.4v-7.3c0-4.8-3.9-8.7-8.7-8.7h-27.7c-4.8,0-8.7,3.9-8.7,8.7v7.3C611.6-282.6,612.2-282,613-282z"/>
			</g>
			<g id="Path-801">
				<path class="st1" d="M639.6-286.1c0.2,0,0.5-0.1,0.6-0.3l7.1-7.2c0.3-0.4,0.3-0.9,0-1.3c-0.4-0.4-0.9-0.3-1.3,0l-7.1,7.2
					c-0.3,0.4-0.3,0.9,0,1.3C639.1-286.2,639.4-286.1,639.6-286.1z"/>
			</g>
			<g id="Path-801-Copy-2">
				<path class="st1" d="M615.2-282.4c0.2,0,0.5-0.1,0.6-0.3l7.1-7.2c0.3-0.4,0.3-0.9,0-1.3c-0.4-0.4-0.9-0.3-1.3,0l-7.1,7.2
					c-0.3,0.4-0.3,0.9,0,1.3C614.7-282.5,615-282.4,615.2-282.4z"/>
			</g>
			<g id="Path-801-Copy">
				<path class="st1" d="M643.4-280.9c0.2,0,0.5-0.1,0.6-0.3l7.1-7.2c0.3-0.4,0.3-0.9,0-1.3c-0.4-0.4-0.9-0.3-1.3,0l-7.1,7.2
					c-0.3,0.4-0.3,0.9,0,1.3C642.9-281,643.2-280.9,643.4-280.9z"/>
			</g>
			<g id="Path-798">
				<path class="st0" d="M608.1-262c0.7,0,1.2-0.5,1.3-1.2c0.1-0.4,0.7-4.2,4.6-4.2c3.8,0,4.2,3.7,4.2,4.1c0.1,0.7,0.6,1.3,1.3,1.3
					h22.6c0.7,0,1.3-0.5,1.3-1.2c0-0.4,0.5-4.2,4.6-4.2c3.9,0,4.2,3.4,4.2,4.1c0,0.7,0.6,1.3,1.3,1.3h9.3c0.7,0,1.3-0.6,1.3-1.4
					v-9.4c0-6-4.8-10.8-10.8-10.8h-35.5c-0.7,0-1.3,0.6-1.3,1.4c0,0.8,0.6,1.4,1.3,1.4h35.5c4.5,0,8.1,3.6,8.1,8.1v8.1H655
					c-0.5-2.4-2.3-5.4-6.8-5.4s-6.4,3.1-7.1,5.4h-20.4c-0.6-2.3-2.4-5.4-6.7-5.4c-5,0-7,4.3-7.3,6.6c-0.1,0.7,0.4,1.4,1.2,1.5
					C608-262,608.1-262,608.1-262z"/>
			</g>
			<g id="Path-799">
				<path class="st0" d="M596.6-261.7h11.9c0.7,0,1.3-0.6,1.3-1.4c0-0.8-0.6-1.4-1.3-1.4H598v-11.8c0-2.5,2.1-4.6,4.6-4.6h5.9
					c0.7,0,1.3-0.6,1.3-1.4c0-0.8-0.6-1.4-1.3-1.4h-5.9c-4,0-7.3,3.3-7.3,7.3v13.2C595.3-262.3,595.9-261.7,596.6-261.7z"/>
			</g>
			<g id="Oval-44">
				
					<ellipse transform="matrix(1 -2.535182e-06 2.535182e-06 1 7.070635e-04 1.554827e-03)" class="st0" cx="613.3" cy="-278.9" rx="0" ry="-1.9"/>
			</g>
			<g id="Path-800">
				<path class="st0" d="M631.2-280.9c0.7,0,1.3-0.6,1.3-1.4v-15c0-0.7-0.6-1.4-1.3-1.4s-1.3,0.6-1.3,1.4v15
					C629.8-281.5,630.4-280.9,631.2-280.9z"/>
			</g>
			<g id="Path-803">
				<path class="st0" d="M597.8-273h7.4c0.7,0,1.3-0.6,1.3-1.4v-7.1c0-0.7-0.6-1.4-1.3-1.4s-1.3,0.6-1.3,1.4v5.8h-6.1
					c-0.7,0-1.3,0.6-1.3,1.4C596.5-273.5,597-273,597.8-273z"/>
			</g>
			<g id="Path-804">
				<path class="st0" d="M634.1-262.1c0.7,0,1.3-0.6,1.3-1.4v-11.3c0-0.7-0.6-1.4-1.3-1.4c-0.7,0-1.3,0.6-1.3,1.4v11.3
					C632.8-262.7,633.4-262.1,634.1-262.1z"/>
			</g>
			<g id="Path-805">
				<path class="st0" d="M645.3-274.9h3c0.7,0,1.3-0.6,1.3-1.4c0-0.8-0.6-1.4-1.3-1.4h-3c-0.7,0-1.3,0.6-1.3,1.4
					C644-275.5,644.5-274.9,645.3-274.9z"/>
			</g>
			<g id="Path-805-Copy">
				<path class="st0" d="M618.2-274.9h3c0.7,0,1.3-0.6,1.3-1.4c0-0.8-0.6-1.4-1.3-1.4h-3c-0.7,0-1.3,0.6-1.3,1.4
					C616.9-275.5,617.4-274.9,618.2-274.9z"/>
			</g>
			<g id="Oval-45">
				<path class="st0" d="M614.1-256.1c3.8,0,6.9-3.1,6.9-7c0-3.9-3.1-7-6.9-7c-3.8,0-6.9,3.1-6.9,7
					C607.2-259.2,610.3-256.1,614.1-256.1z M614.1-267.4c2.3,0,4.2,1.9,4.2,4.3s-1.9,4.3-4.2,4.3c-2.3,0-4.2-1.9-4.2-4.3
					S611.8-267.4,614.1-267.4z"/>
			</g>
			<g id="Oval-45-Copy">
				<path class="st0" d="M648.2-256.1c3.8,0,6.9-3.1,6.9-7c0-3.9-3.1-7-6.9-7s-6.9,3.1-6.9,7C641.3-259.2,644.4-256.1,648.2-256.1z
					 M648.2-267.4c2.3,0,4.2,1.9,4.2,4.3s-1.9,4.3-4.2,4.3s-4.2-1.9-4.2-4.3S645.9-267.4,648.2-267.4z"/>
			</g>
			<g id="Path-808">
				<path class="st0" d="M654.9-281.3h13.4c0.7,0,1.3-0.6,1.3-1.4c0-0.8-0.6-1.3-1.3-1.3h-13.4c-0.7,0-1.3,0.6-1.3,1.4
					C653.6-281.8,654.2-281.3,654.9-281.3z"/>
			</g>
			<g id="Path-808-Copy">
				<path class="st0" d="M662.9-274.9h3.2c0.7,0,1.3-0.6,1.3-1.4c0-0.8-0.6-1.4-1.3-1.4h-3.2c-0.7,0-1.3,0.6-1.3,1.4
					C661.6-275.5,662.1-274.9,662.9-274.9z"/>
			</g>
		</g>
	</g>
	<g id="Path-1029">
		<path class="st0" d="M-528.9-253.4h-57c-0.7,0-1.3-0.6-1.3-1.4s0.6-1.4,1.3-1.4h57c0.7,0,1.3,0.6,1.3,1.4
			S-528.2-253.4-528.9-253.4z"/>
	</g>
	<g id="Oval-74">
		<circle class="st0" cx="-590.4" cy="-254.7" r="1.5"/>
	</g>
</g>
</svg>
