<svg xmlns="http://www.w3.org/2000/svg" width="27" height="20"><path id="basket" d="M260.166 41.527h-2.827l-5.1-6.213a.867.867 0 00-1.185-.134.79.79 0 00-.139 1.139l4.271 5.208h-15.033l4.26-5.208a.79.79 0 00-.139-1.139.866.866 0 00-1.184.134l-5.1 6.213h-3.149a.811.811 0 100 1.621h1.259l1.57 9.15a3.337 3.337 0 003.319 2.7h13.031a3.337 3.337 0 003.319-2.7l1.562-9.136h1.256a.811.811 0 100-1.621zm-4.482 10.5a1.669 1.669 0 01-1.664 1.351h-13.032a1.67 1.67 0 01-1.664-1.351l-1.517-8.874H257.2z" transform="translate(-234 -35)" fill-rule="evenodd"/></svg>