<svg xmlns="http://www.w3.org/2000/svg" viewBox="0 0 27 19.99"><g id="Слой_2" data-name="Слой 2"><g id="Слой_1-2" data-name="Слой 1"><path d="M26.16 6.52h-2.82L18.24.31a.88.88 0 00-1.19-.14.8.8 0 00-.16 1.11l4.27 5.21h-15l4.26-5.21A.79.79 0 0010.31.2a.87.87 0 00-1.22.11L4 6.52H.84A.82.82 0 000 7.3a.8.8 0 00.78.84H2.1l1.57 9.15A3.33 3.33 0 007 20h13a3.34 3.34 0 003.32-2.7l1.58-9.14h1.26a.81.81 0 00.84-.79.8.8 0 00-.78-.83h-.05z"/><path d="M21.68 17A1.66 1.66 0 0120 18.37H7A1.67 1.67 0 015.32 17L3.81 8.15H23.2z" fill="#b2ce88"/></g></g></svg>