<svg xmlns="http://www.w3.org/2000/svg" viewBox="0 0 427.69 427.69"><defs><linearGradient id="Безымянный_градиент" x1="213.84" y1="-83.03" x2="213.84" y2="344.65" gradientTransform="matrix(1 0 0 -1 0 344.65)" gradientUnits="userSpaceOnUse"><stop offset="0" stop-color="#fd3a84"/><stop offset="1" stop-color="#ffa68d"/></linearGradient></defs><g id="Слой_2" data-name="Слой 2"><path d="M407.65 304.54l-76.37-50.91a45.12 45.12 0 00-56.78 5.63l-20.1 20.09c-11.79-1.71-39.82-8.73-68.58-37.48s-35.77-56.79-37.48-68.59l20.09-20.09a45.11 45.11 0 005.62-56.78L123.14 20a45 45 0 00-69.26-6.86L22.05 45A74.42 74.42 0 00.12 101.84c2.4 40.8 20.08 122.89 111.46 214.27s173.47 109.05 214.27 111.45a74.41 74.41 0 0056.83-21.93l31.82-31.82a45 45 0 00-6.85-69.27zm-14.36 48l-31.83 31.83a44.39 44.39 0 01-33.85 13.19c-36.55-2.15-110.46-18.35-194.82-102.71S32.22 136.63 30.07 100.08a44.43 44.43 0 0113.19-33.86L75.09 34.4a15 15 0 0123.09 2.28l50.91 76.37a15 15 0 01-1.87 18.95l-25 25a15 15 0 00-4.39 10.61c0 2 .53 49.17 46.82 95.46s93.47 46.82 95.46 46.82a15 15 0 0010.6-4.4l25-25a15 15 0 0118.93-1.88L391 329.5a15 15 0 012.29 23.09z" fill="url(#Безымянный_градиент)" id="Capa_1" data-name="Capa 1"/></g></svg>