<svg xmlns="http://www.w3.org/2000/svg" width="23.031" height="19.969"><path id="like" d="M178.047 35a6.027 6.027 0 00-4.3 1.8 6.173 6.173 0 000 8.668l9.172 9.293a.783.783 0 001.111 0q4.593-4.64 9.188-9.276a6.18 6.18 0 000-8.676 6.044 6.044 0 00-8.6 0l-1.118 1.154-1.15-1.163a6.043 6.043 0 00-4.3-1.8zm0 1.563a4.485 4.485 0 013.191 1.349l1.7 1.719a.783.783 0 001.111 0l1.686-1.71a4.447 4.447 0 016.374 0 4.567 4.567 0 010 6.447q-4.315 4.359-8.632 8.726l-8.616-8.734a4.568 4.568 0 010-6.447 4.465 4.465 0 013.183-1.349z" transform="translate(-171.969 -35)" fill-rule="evenodd"/></svg>