<svg xmlns="http://www.w3.org/2000/svg" viewBox="0 0 23.03 19.99"><g id="Слой_2" data-name="Слой 2"><g id="Слой_1-2" data-name="Слой 1"><path d="M6.08 0a6 6 0 00-4.3 1.8 6.17 6.17 0 000 8.67L11 19.76a.78.78 0 001.11 0l9.19-9.28a6.17 6.17 0 000-8.67 6 6 0 00-8.55-.05v.05L11.53 3l-1.15-1.2A6 6 0 006.08 0z"/><path d="M6.08 1.56a4.51 4.51 0 013.19 1.35L11 4.63a.78.78 0 001.11 0l1.69-1.71a4.43 4.43 0 016.28-.08l.09.08a4.58 4.58 0 010 6.45q-4.32 4.35-8.63 8.72L2.89 9.36a4.58 4.58 0 010-6.45 4.5 4.5 0 013.18-1.35z" fill="#b2ce88"/></g></g></svg>