<svg xmlns="http://www.w3.org/2000/svg" viewBox="0 0 16 16"><g id="Слой_2" data-name="Слой 2"><path d="M15.42 16v-1.68h-5.33v-2.47a7.46 7.46 0 004.17-1.67A7.8 7.8 0 0016 5a.81.81 0 00-.81-.84H15A6.88 6.88 0 0010.2 6a7.1 7.1 0 00-.69 1c-.35-.83-.81-2.75-1.39-3.35A14.34 14.34 0 001 0H.81A1 1 0 000 .84C0 1.2-.11 7.3 2.09 9.58c1.5 1.56 5 2 6.26 2.15v2.47H2.67V16zm-3.94-8.94a4.77 4.77 0 012.78-1.19 5.09 5.09 0 01-1.16 2.87 4.73 4.73 0 01-2.78 1.2 4.64 4.64 0 011.16-2.88zM3.36 8.38C2.2 7.18 1.86 3 1.74 1.8A13.4 13.4 0 017 4.67c1.16 1.2 1.5 4.19 1.62 5.39-1.2-.12-4.1-.48-5.26-1.68z" fill="#bababa" id="Layer_1" data-name="Layer 1"/></g></svg>