<svg xmlns="http://www.w3.org/2000/svg" viewBox="0 0 20.01 20.02"><g id="Слой_2" data-name="Слой 2"><g id="Слой_1-2" data-name="Слой 1"><path d="M8.17.28a7.9 7.9 0 105.2 13.83l5.48 5.49a.51.51 0 00.74 0 .53.53 0 000-.75l-5.48-5.48A7.89 7.89 0 008.17.28z"/><path d="M8.17 1.33a6.84 6.84 0 11-6.85 6.84 6.84 6.84 0 016.85-6.84z"/><path d="M19.22 20a.83.83 0 01-.56-.23l-5.31-5.32a8.17 8.17 0 111.11-1.11l5.32 5.31a.78.78 0 010 1.11.8.8 0 01-.56.24z"/><path d="M8.17 15.28a7.1 7.1 0 117.1-7.1 7.12 7.12 0 01-7.1 7.1z"/><path d="M8.17 1.6a6.58 6.58 0 106.58 6.57A6.57 6.57 0 008.17 1.6z" fill="#b2ce88"/></g></g></svg>