<svg version="1.1" id="Layer_1" xmlns="http://www.w3.org/2000/svg" x="0" y="0" viewBox="0 0 30 30" xml:space="preserve"><path fill="#FFF" d="M22.4 13.3c-1.4-.7-3.1-.7-3.6-.4-.4-.3-.9-.6-1.4-.8.8-.1 1.6-.4 2.3-.8 1.4-.9 3-4.2 3.2-4.5.1-.2.1-.4 0-.6-.1-.2-.3-.3-.5-.2-.2 0-3.9.4-6 1.8-2.2 1.5-2.1 3.8-2.1 3.9-.8.1-1.8.4-2.7 1.2 0-.6 0-1.3-.1-1.9-.2-1.6-1.7-2.7-1.7-2.8-.1-.2-.2-.2-.4-.2-.2.1-.3.2-.4.3 0 .1-.7 1.5-.3 3.4.3 1.2 1 2.3 1.6 2.8-.8 1.4-1.2 2.8-1 4.1-.6-.3-1.4-.4-2.1-.2-.4.1-1 .5-1.2 1.4-.2.8 0 1.3.2 1.5.4.6 1.2.7 1.3.7.3 0 .6-.2.6-.6 0-.3-.2-.6-.6-.6-.1 0-.3-.1-.4-.2-.1-.1 0-.4 0-.5.1-.5.4-.6.5-.7.6-.2 1.6.3 2.1.6 1.5 3.6 6.4 5.2 6.6 5.3h.2c.3 0 .5-.2.6-.4.1-.3-.1-.6-.4-.7 0 0-4.7-1.5-5.9-4.7-.5-1.4-.3-3 .7-4.7.3-.5.6-.9.9-1.2.2.3.6 1.1 1.5 1.9.9.9 1.9 1 2.4 1h.2c.2 0 .3-.1.4-.3.1-.2.1-.3 0-.5s-.7-1.8-1.5-2.4c-.5-.4-.9-.5-1.3-.6.6-.1 1.2-.1 1.7 0 1.8.4 3.4 1.8 3.6 2.9.2 1.1 0 2-.5 2.7-.9 1.1-2.5 1.2-2.5 1.2-.3 0-.6.3-.6.6s.3.6.6.6c.1 0 2.1-.2 3.4-1.7.7-.9 1-2.1.8-3.5.2.1.4.3.5.4.7.5 1.6.6 2.2.6.5 0 .8-.1.8-.1.2 0 .3-.1.4-.3.1-.2.1-.3 0-.5.2 0-.4-1.4-2.1-2.3zm-7 2c-.2-.1-.5-.2-.7-.5-.3-.3-.6-.6-.8-.9.3.1.5.2.8.4.3.2.5.6.7 1zm1.7-6.7c1.2-.8 3.1-1.2 4.3-1.4-.6 1.1-1.5 2.6-2.2 3-.7.5-1.6.7-2.4.7l.3-.3c.8-.6 2.2-1.4 2.3-1.4.3-.2.4-.5.2-.8s-.5-.4-.8-.2c-.1 0-1.5.8-2.4 1.5-.3.2-.5.4-.7.6.2-.5.6-1.1 1.4-1.7zm-7.3 2.9c-.2-.7-.1-1.3 0-1.8.3.4.6.8.6 1.4.1.6.1 1.3.1 1.9-.2-.4-.5-.9-.7-1.5zm12 3.5c-.4-.3-.9-.7-1.3-1 .4.1.9.2 1.4.4.5.3.9.7 1.2 1-.4-.1-.9-.2-1.3-.4z"/></svg>