<svg version="1.1" id="Layer_1" xmlns="http://www.w3.org/2000/svg" x="0" y="0" viewBox="0 0 30 30" xml:space="preserve"><path fill="#FFF" d="M15.2 5.1c-.2-.1-.5-.1-.7 0-.2.2-4.8 3.7-6.7 7.9-1.1 2.5-1.1 4.8 0 6.5.9 1.3 2.3 2 3.8 1.9 1.2-.1 2.1-.6 2.7-1.1v6.2c0 .3.3.6.6.6s.6-.3.6-.6v-5.9c.7.5 1.6.9 2.6.9h.4c1.5-.1 2.7-1 3.6-2.3 1-1.6 1.2-3.8.5-5.7-1.6-3.9-7.2-8.2-7.4-8.4zM21 18.6c-.6 1-1.6 1.6-2.7 1.8-1.3.1-2.4-.7-2.9-1.3v-1.5l2.2-2.5c.2-.2.2-.6-.1-.8-.2-.2-.6-.2-.8.1l-1.3 1.5v-1l2.2-2.5c.2-.2.2-.6-.1-.8-.2-.2-.6-.2-.8.1l-1.3 1.5v-2.5c0-.3-.3-.6-.6-.6s-.6.3-.6.6V13l-1.6-1.6c-.2-.2-.6-.2-.8 0s-.2.6 0 .8l2.4 2.4v1.1l-1.6-1.6c-.2-.2-.6-.2-.8 0-.2.2-.2.6 0 .8l2.4 2.4v1.1c-.1 0-.1.1-.1.1s-.9 1.4-2.6 1.5c-1.1 0-2.2-.5-2.8-1.4-.9-1.3-.8-3.2.1-5.3 1.5-3.3 4.9-6.2 6-7.2 1.3 1 5.4 4.6 6.5 7.6.6 1.8.5 3.5-.3 4.9z"/></svg>