<svg version="1.1" id="Layer_1" xmlns="http://www.w3.org/2000/svg" x="0" y="0" viewBox="0 0 30 30" xml:space="preserve"><path fill="#FFF" d="M24 6.4c-.7-.1-1.4 0-1.9.1-.3-.7-1.1-1.6-2.7-1.5-1.2 0-1.9.3-2.3.6-.6-.7-1.7-1.5-3.4-1.3-1.5.2-2.4.7-2.8 1.2-.5-.3-1.2-.5-2.2-.1-1.1.4-1.4 1.3-1.4 2-.6.1-1.6.6-2 1.3-.3.4-.3.8-.2 1.3.4 1.5 2.5 1.5 3.5 1.4.1.2.2.5.4.7.4.4.9.6 1.6.7h.1c.8 0 1.5-.3 2-.7.2.7.7 2.2 2 2.8.9.4 2.3.4 3 .3.1.2.1.4.1.5 0 0 0 .1-.2.1-.2.1-.8.1-1.3.1-2 .1-5.4.3-6.9 3.1-1.8 3.5-1.4 6.9-1.3 7 0 .3.3.5.6.5H24c.3 0 .5-.2.6-.4 0-.1.8-2.9-.8-4.5-.7-.7-1.7-1.1-2.8-1.3.3-.2.5-.5.7-.7 1.1-1.3 1.3-3 1.1-4.2-.3-1.8-1.7-3.8-2.3-4.6.3-.2.5-.5.7-.7.7.3 2 .6 3.6.1 1.5-.5 1.5-1.5 1.5-1.9-.3-1-1.4-1.8-2.3-1.9zm-2.6 9.3c.2.9 0 2.2-.8 3.2-.6.7-1.4 1.1-2.5 1.3-1 0-2.1.1-3 .1h-.3c-.3 0-.6.3-.6.6s.3.6.6.6h.3c.6 0 1.2-.1 1.8-.1h.2c.4 0 .7 0 1-.1 1.9 0 3.7.2 4.6 1.1.8.9.7 2.3.6 3H9.2c0-1 0-3.4 1.3-5.8 1.2-2.2 4-2.4 5.9-2.5.7 0 1.3-.1 1.7-.2.6-.2.8-.6.9-.9.3-.8-.3-1.8-.4-1.9-.1-.2-.4-.3-.6-.3-.5.1-2 .2-2.7-.1-.7-.3-1.1-1.3-1.3-1.9.1 0 .2 0 .4.1.3.7.9 1.7 2 1.7.5 0 1.2-.3 1.3-.3.3-.1.4-.5.3-.8l-.5-1.3c.4.1.9.2 1.4.1h.2c.5.7 2.1 2.8 2.3 4.4zm-5.1-4.3c0 .1 0 .1 0 0l.4 1h-.3c-.4 0-.7-.4-.8-.6.2-.1.5-.2.7-.4zm7.9-2.3c-1.8.6-3.1-.2-3.2-.3-.2-.1-.4-.1-.6-.1-.2.1-.3.2-.4.4 0 .1-.2.9-1.3 1-1.2.1-1.6-.5-1.6-.5-.1-.2-.4-.3-.6-.3-.2 0-.4.2-.5.5 0 0-.1.5-1 .8-.7.2-1.4-.1-1.6-.3-.1-.1-.2-.2-.3-.2-.2-.1-.5 0-.7.2-.1.1-.1.2-.1.3-.2.2-.8.9-1.7.8-.3 0-.6-.1-.7-.3-.2-.2-.2-.6-.2-.6 0-.2-.1-.4-.2-.5-.1-.1-.3-.2-.5-.1-.9.2-2.6.2-2.8-.5V9c.3-.5 1.2-.8 1.8-.9.2 0 .3-.1.4-.3.1-.1.1-.3 0-.5.1.1-.1-.5.7-.8.9-.4 1.3.1 1.4.2.2.2.4.3.6.3.2 0 .4-.2.5-.4 0 0 .4-.9 2.3-1.1 1.9-.2 2.6 1.2 2.6 1.3.1.2.3.4.5.3.3 0 .5-.2.5-.4 0 0 .3-.6 1.9-.6h.1c1.4 0 1.6 1 1.6 1.2 0 .2.1.3.3.4.2.1.4.1.5 0 0 0 .9-.4 1.9-.2.5.1 1 .5 1 .9.1.4-.3.6-.6.7z"/></svg>