<svg version="1.1" id="Layer_1" xmlns="http://www.w3.org/2000/svg" x="0" y="0" viewBox="0 0 30 30" xml:space="preserve"><path fill="#FFF" d="M19.8 14c1.5-1.4 2.4-3.4 2.3-5 0-1-.4-1.8-1.1-2.4-1-.8-2-.8-3-.5-.7-1-1.7-1.7-2.8-1.7-1.1 0-2.1.6-2.8 1.6-.5-.2-1-.3-1.5-.3-.8 0-1.5.3-2.1 1-1 1.1-1 2.8-.2 4.7 1 2.3 3.3 4.5 6 4.8v4c-.5-.5-1.1-1.1-1.8-1.6-1.6-1.2-3.7-.9-3.8-.9-.2 0-.3.1-.4.3s-.1.3-.1.5c0 .1.7 1.9 2.6 3.2 1.2.7 2.5 1 3.4 1v3.1c0 .3.3.6.6.6s.6-.3.6-.6v-3.1h.1c.9 0 2.3-.2 3.5-1 2-1.2 2.6-3.1 2.6-3.2.1-.2 0-.4-.1-.5-.1-.2-.2-.3-.4-.3-.1 0-2.3-.3-3.8.9-.7.5-1.4 1.2-1.9 1.8v-4.2c.8-.1 2.4-.6 4.1-2.2zm-8.1 6.7c-.9-.5-1.4-1.2-1.8-1.8.6 0 1.4.2 2.1.7.7.5 1.5 1.3 2 1.9-.6-.1-1.4-.3-2.3-.8zm6.7-1.1c.7-.5 1.5-.6 2.1-.7-.3.5-.9 1.2-1.8 1.8-.8.5-1.7.7-2.3.8.5-.6 1.2-1.4 2-1.9zM12.8 7.7c.8.5 1.5 1.2 1.9 1.5.1.1.3.2.4.2.2 0 .3-.1.4-.2 0 0 .8-.9 1.9-1.5.3.8.5 1.7.5 2.7 0 2.5-1.3 4.7-2.9 4.7-1.5 0-2.9-2.1-2.9-4.7.2-1 .4-2 .7-2.7zm7.4-.1c.4.3.7.8.7 1.5.1 1.3-.7 2.9-2 4.1-.2.1-.3.3-.5.4.4-.9.6-2 .6-3.2 0-1.2-.2-2.2-.6-3.1.7-.2 1.3-.1 1.8.3zm-5.1-1.9c.6 0 1.2.4 1.7 1-.7.4-1.3.9-1.7 1.3-.4-.4-1-.9-1.7-1.3.5-.6 1.1-1 1.7-1zm-5.5 5.2C9 9.5 9 8.2 9.6 7.5c.4-.4.8-.5 1.2-.5.3 0 .6.1.9.2-.4.9-.7 2-.7 3.2 0 1.3.3 2.5.7 3.4-.8-.8-1.6-1.9-2.1-2.9z"/></svg>