<svg version="1.1" id="Layer_1" xmlns="http://www.w3.org/2000/svg" x="0" y="0" viewBox="0 0 30 30" xml:space="preserve"><path fill="#FFF" d="M6.5 15.1c-.3.7-.5 1.9.2 3.3.8 1.5 2.4 1.8 3.4 1.7.2.4.7.9 1.2 1.4.7.6 1.6.9 2.9.9v4.4H9c-.3 0-.6.3-.6.6 0 .4.3.6.6.6h11.5c.3 0 .6-.3.6-.6s-.3-.6-.6-.6h-5.1v-4.3h.3c.9 0 2.1-.2 3.5-1.2 1.7-1.2 2.1-2.7 2.2-3.5 1.3-.4 3.2-1.6 3.2-4.5 0-2.3-1.5-3.5-2.7-3.9.1-.9.3-2.6-.7-4.1-1.1-1.7-3.1-1.7-3.9-1.6C16.9 3.1 16 2 14.5 2c-1.4 0-2.2 1-2.6 1.8-.5 0-1.4.1-2.3.8-.9.7-1.3 1.6-1.4 2.2-1.2.2-3 1.1-3.6 3.4-.6 2.4.8 4.1 1.9 4.9zm-.8-4.6c.6-2.5 2.9-2.6 3-2.6.3 0 .5-.2.6-.5 0 0 .1-1.1 1-1.9.9-.7 1.8-.5 1.8-.5.3.1.6-.1.7-.4 0-.1.4-1.4 1.6-1.4 1.3 0 1.9 1.3 2 1.4.1.3.4.4.7.3 0 0 2.2-.4 3.2 1.1 1 1.6.4 3.7.4 3.7 0 .2 0 .3.1.5.1.1.2.2.4.3.1 0 2.3.5 2.3 2.9 0 3-2.5 3.4-2.6 3.4-.3 0-.5.3-.5.6 0 .1.1 1.7-1.7 3-1.3.9-2.5 1-3.2.9V18c.6-.1 1.9-.4 2.9-1.5 1.5-1.6 1.4-3.8 1.4-3.9 0-.3-.3-.6-.6-.6s-.6.3-.6.6c0 0 .1 1.8-1.1 3-.7.8-1.6 1-2.1 1.1V9.2c0-.3-.3-.6-.6-.6s-.6.3-.6.6v5.7c-.4 0-1.6 0-2.6-1.1S10.5 11 10.5 11c0-.3-.3-.6-.6-.5-.3 0-.6.3-.5.6 0 .1.2 2.1 1.4 3.5 1.1 1.3 2.6 1.5 3.3 1.5h.2v5.2c-1-.1-1.7-.3-2.2-.7-.7-.6-1.2-1.4-1.2-1.4-.1-.2-.4-.3-.6-.3-.1 0-1.8.3-2.5-1.1-.8-1.5-.1-2.6 0-2.6.1-.1.1-.3.1-.5s-.1-.3-.3-.4c-.1.1-2.5-1.3-1.9-3.8z"/></svg>