<svg version="1.1" id="Layer_1" xmlns="http://www.w3.org/2000/svg" x="0" y="0" viewBox="0 0 30 30" xml:space="preserve"><path fill="#FFF" d="M23.7 14c-.1-.1-.4-.2-.8 0-.6.3-1.2.3-1.9.1-.9-.1-1.9-.3-3.2.3-1.6.8-1.6 2.8-1.5 3.6-.3.3-.6.6-.8.9v-1.1c0-1.4 0-2.7.1-3.6h.2c1.5 0 3-.7 3.7-2.5.6-1.6.3-5.7-.7-6.2-.3-.1-.7-.1-.9.3-.5.8-1.3 1.2-2.2 1.5-1 .4-2 .8-2.5 1.9-1.2 2.2.2 4.1 1.1 4.7l.1.1v.1c0 .6-.1 1.4-.1 2.3-.2-.2-.4-.4-.7-.5.2-1.2 0-2.9-1.6-3.4-1.4-.4-2.3-.3-3.1-.2-.7.1-1.2.2-1.9-.3-.4-.3-.9-.1-1 .2-.6.9.8 4 2.5 5.2.7.5 1.4.7 2.1.7.2 0 .4 0 .6-.1.9-.2 1.5-.7 1.9-1.1.5.4 1 .9 1.2 1.1v6H8.9c-.3 0-.6.3-.6.6s.3.6.6.6h12.3c.3 0 .6-.3.6-.6s-.3-.6-.6-.6h-5.8v-3.5c.1 0 .1-.1.2-.2 0 0 .5-.7 1.2-1.4.5.5 1.3 1.1 2.5 1.1.5 0 1.1-.1 1.8-.4 1.8-.7 2.9-3.5 3-4.8 0 .1 0-.5-.4-.8zm-12.8 3c-.6.1-1.2 0-1.8-.4-1-.7-1.7-2.2-2-3 .7.2 1.4.2 2 .1.7-.1 1.5-.2 2.6.1.6.2.8.9.8 1.5-1.3-.6-2.5-.8-2.6-.8-.3-.1-.6.2-.7.5-.1.3.2.6.5.7 0 0 1.2.2 2.3.8-.2.2-.6.4-1.1.5zm3.2-7.1c.4-.7 1.1-1 2-1.4.8-.3 1.6-.7 2.2-1.3.2 1 .4 3 0 4.1-.6 1.5-1.7 1.8-2.6 1.8.4-2 1.6-3.1 1.6-3.1.2-.2.2-.6 0-.8-.2-.2-.6-.3-.8 0-.1.1-1.4 1.3-1.9 3.6-.5-.5-1.3-1.5-.5-2.9zm6.5 8.9c-1.6.7-2.5.1-2.9-.4.1-.1.1-.1.2-.1 1.1-.8 3-1.1 3-1.1.3 0 .6-.3.5-.7 0-.3-.3-.6-.7-.5-.1 0-2 .3-3.3 1.1.1-.6.2-1.2.8-1.5 1-.5 1.7-.3 2.5-.2.7.1 1.3.2 2.1 0-.2.9-1 2.9-2.2 3.4z"/></svg>