<svg version="1.1" id="Layer_1" xmlns="http://www.w3.org/2000/svg" x="0" y="0" viewBox="0 0 30 30" xml:space="preserve"><path fill="#FFF" d="M21.4 12.3c-1-2.6-3.5-4.4-6.3-4.7-.5 0-1.5-.1-2.7.3-.1 0-.2 0-.3.1 0 0-.1 0-.2.1-.4.1-.7.3-1.1.5-.1 0-.1.1-.2.1-.5.3-.8.6-1.2.9 0 .1-.1.1-.1.2l-.1.1c-.5.5-.9 1.1-1.2 1.7-.1.3-.3.6-.4 1-.3.9-.3 1.9-.3 1.9s-.6 0-1.5.5c-1.2.7-2 2.1-2 3.5 0 2.2 1.8 4.1 4.1 4.1h13.7c2.6-.2 4.6-2.5 4.6-5.1-.1-2.8-2.1-5-4.8-5.2zm-.1 8.8c-.1 0-.1 0 0 0H7.8c-1.5 0-2.7-1.2-2.7-2.7 0-1.5 1.2-2.7 2.7-2.7.4 0 .7-.3.7-.7v-.2c0-.3.1-.7.1-1v-.1c0-.1 0-.2.1-.3 0-.1 0-.1.1-.2v-.1c0-.1.1-.2.1-.2.4-1.1 1.1-2 2-2.7l.1-.1c1.1-.8 2.3-1.2 3.6-1.2 2.6 0 5 1.7 5.8 4.2.1.3.4.5.7.5 2.1 0 3.8 1.7 3.8 3.8-.1 1.9-1.7 3.6-3.6 3.7z"/></svg>