<svg version="1.1" id="Layer_1" xmlns="http://www.w3.org/2000/svg" x="0" y="0" viewBox="0 0 30 30" xml:space="preserve"><path fill="#FFF" d="M21.7 7.4c-.4 0-1.8.2-3.3 1-.3-.9-1.3-2.9-2.6-3.6-.7-.4-1.2-.4-2.1.1-1.1.7-1.8 2.3-2.1 3.2-1.4-.7-2.8-.8-3.2-.8v.6-.5c-.3 0-.5.2-.6.4-.1.3 0 .5.3.7 0 0 .8.5.9 1.6 0 .2 0 .5.1.8.1 1.2.2 2.5 1.2 4 1.4 2 3.5 2.4 4.3 2.5v3.5c-.6-.6-1.3-1.3-2-1.9-1.6-1.2-3.7-1-3.8-.9-.2 0-.3.1-.4.3-.1.2-.1.3-.1.5 0 .1.7 1.9 2.6 3.2 1.2.7 2.5 1 3.5 1h.2V26c0 .3.3.6.6.6s.6-.3.6-.6v-3c.9 0 2.2-.3 3.3-1 2-1.2 2.6-3.1 2.6-3.2.1-.2 0-.4-.1-.5s-.2-.3-.4-.3c-.1 0-2.2-.3-3.8.9-.6.4-1.2 1-1.7 1.5v-3.2c.9-.1 2.8-.7 4-2.4 1-1.5 1.1-2.8 1.2-4 0-.3 0-.5.1-.8.2-.9 1-1.4 1-1.5.2-.1.3-.4.3-.7-.1-.2-.3-.4-.6-.4zM11.5 21c-.9-.5-1.4-1.2-1.8-1.8.6 0 1.4.2 2.1.7.7.5 1.5 1.3 2 1.9-.6-.1-1.4-.3-2.3-.8zm6.7-1.1c.7-.5 1.5-.6 2.1-.7-.3.5-.9 1.2-1.8 1.8-.8.5-1.7.7-2.3.8.5-.6 1.3-1.4 2-1.9zM14.4 6c.5-.3.5-.3.9-.1 1 .5 1.8 2.4 2.1 3.2-.6.5-1.2 1.1-1.6 1.9-.3.7-.6 1.3-.8 1.9-.2-.7-.5-1.5-.9-2.3-.4-.7-.9-1.3-1.4-1.7.2-.8.8-2.3 1.7-2.9zm-3.1 8.2c-.9-1.2-.9-2.3-1-3.4 0-.3 0-.5-.1-.8-.1-.5-.2-.9-.4-1.2 1 .3 2.4.9 3.2 2.3 1.1 2.1 1.3 4 1.3 5-.7-.1-2.1-.6-3-1.9zm8.6-4.2c0 .3 0 .5-.1.8-.1 1.1-.1 2.2-1 3.4-1 1.3-2.4 1.8-3.1 1.9 0-.8 0-2.5 1.1-4.5.8-1.5 2.2-2.3 3.4-2.6-.1.3-.2.6-.3 1z"/></svg>