<svg version="1.1" id="Layer_1" xmlns="http://www.w3.org/2000/svg" x="0" y="0" viewBox="0 0 30 30" xml:space="preserve"><g fill="#FFF"><path d="M5.2 13.6c0-.4-.3-.7-.7-.7H1.2c-.4 0-.7.3-.7.7 0 .4.3.7.7.7h3.3c.4 0 .7-.4.7-.7zm5.2-5.2c.4 0 .7-.3.7-.7V4.4c0-.4-.3-.7-.7-.7s-.7.3-.7.7v3.3c0 .4.3.7.7.7zM5.7 9.9c.2.1.3.2.5.2s.4-.1.5-.2c.3-.3.3-.7 0-1L4.4 6.6c-.3-.3-.7-.3-1 0-.3.3-.3.7 0 1l2.3 2.3zm1.2 7.8c0-.2-.1-.4-.2-.5-.3-.3-.7-.3-1 0l-2.3 2.3c-.3.3-.3.7 0 1 .1.1.3.2.5.2s.4-.1.5-.2l2.3-2.3c.1-.1.2-.3.2-.5z"/><path d="M24.5 14.4c-1.2-2.9-4-4.8-7.2-4.8-.9 0-1.7.1-2.5.4.1 0 .2 0 .2-.1l2.3-2.3c.1-.1.2-.3.2-.5s-.1-.4-.2-.5c-.3-.3-.7-.3-1 0L14 8.9c-.1.1-.2.3-.2.5s.1.4.2.5c.1.1.3.2.5.2h.1l-1.2.6c-.8-.8-1.9-1.3-3.1-1.3-2.3 0-4.2 1.9-4.2 4.2 0 1.5.8 2.9 2.1 3.6-1.3.8-2.1 2.1-2.1 3.6 0 2.3 1.9 4.2 4.2 4.2h14.2c2.7-.2 4.8-2.6 4.8-5.3.1-2.7-2.1-5-4.8-5.3zm-16.9-.8c0-1.5 1.3-2.8 2.8-2.8.7 0 1.4.3 1.9.8-1.2 1-2 2.4-2.4 3.9v1c-1.4-.5-2.3-1.6-2.3-2.9zm16.7 10h-14c-1.5 0-2.8-1.3-2.8-2.8 0-1.5 1.3-2.8 2.8-2.8.4 0 .7-.3.7-.7V17c0-.3.1-.7.1-1.1v-.1c0-.1 0-.2.1-.3 0-.1 0-.1.1-.2v-.1c0-.1.1-.2.1-.2.4-1.1 1.1-2.1 2.1-2.8l.1-.1c1.1-.8 2.4-1.2 3.7-1.2 2.7 0 5.1 1.7 6 4.3.1.3.4.5.7.5 2.2 0 3.9 1.7 3.9 3.9.1 2.2-1.5 3.9-3.6 4z"/></g></svg>