<svg version="1.1" id="Layer_1" xmlns="http://www.w3.org/2000/svg" x="0" y="0" viewBox="0 0 30 30" xml:space="preserve"><path fill="#FFF" d="M23.7 7.9c-.3-.2-.6-.1-.8.2-.8 1.2-2 3-2.8 4l-.8-.8 3.2-3.8c.2-.2.2-.6-.1-.8-.2-.2-.6-.2-.8.1l-3.2 3.7-.5-.5c1.2-1.4 2.8-3.4 2.9-3.5.2-.2.2-.6-.1-.8-.3-.2-.6-.2-.8.1 0 0-2.9 3.5-3.8 4.5-1.2 1.3-.8 2.8-.3 3.7l-.2.3c-.7-.8-1.4-1.5-2-2.2-2.7-3-4.9-5.1-5.4-5.4-.1-.1-.2-.1-.3-.1-.1 0-.8 0-1.1.4-.2.2-.4.6-.2 1.1.3.9 3.8 7.7 5.3 9.1-.9.8-2.5 2.3-3 2.9-2 2.4-1.1 3.6-.7 4 .3.3.7.4 1.1.4h.2c.6-.1 1.6-.4 2.8-1.9.9-1.2 2.1-3.1 2.8-4.2.6 1.2 1.6 3.2 2.4 4.2.9 1.2 1.8 1.8 2.7 1.9h.1c.4 0 .8-.2 1.1-.5 1-1 .7-2.5-1-4.5-.5-.6-1.7-1.8-3-3.2-.3-.4-.7-.7-1-1.1l.4-.5c.3.1.6.1 1.1.1.7 0 1.6-.2 2.3-.9.7-.7 3.4-4.7 3.8-5.2.1-.3 0-.6-.3-.8zm-12.3 14c-1 1.2-1.7 1.4-2 1.5-.2 0-.3 0-.4-.1-.6-.6.5-1.9.8-2.3.5-.6 2.4-2.3 3.1-3 .3.1.7.2 1 .2-.7 1-1.7 2.7-2.5 3.7zm8.1-1.7c.7.8 1.7 2.3 1 2.9-.1.1-.2.1-.3.1-.2 0-.8-.1-1.8-1.4-1.1-1.5-2.7-5-2.7-5 0-.1-.1-.2-.2-.3 0 0-.1 0-.1-.1H15s-.1 0-.1.1c-.1.1-1.2.7-2.2-.2-1.2-1.2-4.6-7.6-4.9-8.6.7.5 2.5 2.3 5 5 .8.9 1.6 1.8 2.5 2.7.5.5.9 1 1.4 1.5 1.2 1.6 2.4 2.8 2.8 3.3zm-2.6-6.7c-.2-.4-.8-1.4.1-2.4 0-.1.1-.1.2-.2l2.2 2.1c-1 .9-2.1.6-2.5.5z"/></svg>