<svg version="1.1" id="Layer_1" xmlns="http://www.w3.org/2000/svg" x="0" y="0" viewBox="0 0 30 30" xml:space="preserve"><path fill="#FFF" d="M23.2 13.5c.2-.3.2-.6-.1-.8-.3-.2-.6-.2-.8.1l-1.9 2.4v-4.9c0-.3-.3-.6-.6-.6s-.6.3-.6.6v4.9l-1.9-2.4c-.2-.3-.6-.3-.8-.1-.3.2-.3.6-.1.8l2.9 3.6v2.5l-1.9-2.4c-.2-.3-.6-.3-.8-.1-.3.2-.3.6-.1.8l2.9 3.6v2.8h-7.7v-2.5l3.5-4.4c.2-.3.2-.6-.1-.8-.3-.2-.6-.2-.8.1L11.7 20v-2l3.5-4.4c.2-.3.2-.6-.1-.8-.3-.2-.6-.2-.8.1l-2.6 3.3V14l3.5-4.4c.2-.3.2-.6-.1-.8-.3-.2-.6-.2-.8.1l-2.6 3.3V4.5c0-.3-.3-.6-.6-.6s-.6.3-.6.6v7.4L7.6 8.6c-.2-.3-.6-.3-.8-.1-.3.2-.3.6-.1.8l3.5 4.4v2.2l-2.6-3.3c-.2-.3-.6-.3-.8-.1-.3.2-.3.6-.1.8l3.5 4.4v2l-2.6-3.3c-.2-.3-.6-.3-.8-.1-.3.2-.3.6-.1.8l3.5 4.4V24H9c-.3 0-.6.3-.6.6s.3.6.6.6h12.8c.3 0 .6-.3.6-.6s-.3-.6-.6-.6h-1.4v-2.8l2.9-3.6c.2-.3.2-.6-.1-.8-.3-.2-.6-.2-.8.1l-1.9 2.4V17l2.7-3.5z"/></svg>