<svg version="1.1" id="Layer_1" xmlns="http://www.w3.org/2000/svg" x="0" y="0" viewBox="0 0 30 30" xml:space="preserve"><path fill="#FFF" d="M20.9 10.1c-.1-.7-.5-1.8-1.5-2.2 0-.1.1-.3.1-.5.2-.7.7-.9.8-.9.3-.1.5-.4.5-.7-.1-.3-.4-.5-.7-.5-.5.1-1.4.6-1.7 1.7-.1.3-.1.5-.2.7-.5.1-.8.3-.9.5-.6.7-.5 1.6-.5 1.7-.5.4-.9 1.1-1.1 2-.1.5-.2 1.1-.2 1.8-.1 1.5-.3 3.4-1.4 5.3-1.1 2-4.8 3-6.4 3.4-1 .3-1.2.3-1.3.7-.1.3 0 .5.2.7.1.1.8.5 2.6.5.8 0 1.8-.1 3.1-.3 3.9-.7 7.8-2.2 9.7-8.2.9-2.8.3-4.4-.3-5.2-.3-.1-.5-.3-.8-.5zm-2.7-.9s.2-.2.5-.2c.4 0 .6.3.8.5-.3-.1-.6-.1-.8-.1-.2 0-.5 0-.7.1.1-.1.1-.2.2-.3zm2.6 6.5c-1.6 5-4.7 6.6-8.8 7.4-.9.2-1.7.3-2.3.3 2-.6 4.4-1.7 5.4-3.5 1.2-2.1 1.4-4.3 1.5-5.8.1-.6.1-1.2.2-1.6.3-1.3.7-1.7 1.9-1.7h.1c.5 0 1.3.2 1.8.9.8.7.8 2.1.2 4z"/></svg>