<svg version="1.1" id="Layer_1" xmlns="http://www.w3.org/2000/svg" x="0" y="0" viewBox="0 0 30 30" xml:space="preserve"><path d="M14.7 21.1c2.9 0 5.3-2.4 5.3-5.3s-2.4-5.3-5.3-5.3-5.3 2.4-5.3 5.3 2.4 5.3 5.3 5.3zm0-9.2c2.1 0 3.8 1.7 3.8 3.8 0 2.1-1.7 3.8-3.8 3.8s-3.8-1.7-3.8-3.8c0-2.1 1.7-3.8 3.8-3.8zm0-3.2c.4 0 .7-.3.7-.7V5.4c0-.4-.3-.7-.7-.7s-.7.3-.7.7V8c0 .4.3.7.7.7zm-5.9 2.1c.1.1.3.2.5.2s.4-.1.5-.2c.3-.3.3-.8 0-1L7.9 7.9c-.3-.3-.8-.3-1 0-.1.1-.2.3-.2.5s.1.4.2.5l1.9 1.9zm-1.1 4.9c0-.4-.3-.7-.7-.7H4.4c-.4 0-.7.3-.7.7 0 .4.3.7.7.7H7c.4.1.7-.3.7-.7zm1.1 5l-1.9 1.9c-.1.1-.2.3-.2.5s.1.4.2.5c.1.1.3.2.5.2s.4-.1.5-.2l1.9-1.9c.1-.1.2-.3.2-.5s-.1-.4-.2-.5c-.3-.3-.8-.3-1 0zm5.2 2.8v2.6c0 .4.3.7.7.7s.7-.3.7-.7v-2.6c0-.4-.3-.7-.7-.7s-.7.3-.7.7zm5.7-2.8c-.1.1-.2.3-.2.5s.1.4.2.5l1.9 1.9c.1.1.3.2.5.2s.4-.1.5-.2c.1-.1.2-.3.2-.5s-.1-.4-.2-.5l-1.9-1.9c-.3-.3-.7-.3-1 0zm5.4-5.7h-2.6c-.4 0-.7.3-.7.7 0 .4.3.7.7.7h2.6c.4 0 .7-.3.7-.7 0-.4-.3-.7-.7-.7zm-4.9-4c.2 0 .4-.1.5-.2l1.9-1.9c.1-.1.2-.3.2-.5s-.1-.4-.2-.5c-.3-.3-.8-.3-1 0l-1.9 1.9c-.3.3-.3.8 0 1 .1.1.3.2.5.2z" fill="#FFF"/></svg>