<svg version="1.1" id="Layer_1" xmlns="http://www.w3.org/2000/svg" x="0" y="0" viewBox="0 0 30 30" xml:space="preserve"><g fill="#FFF"><path d="M18 18.8c0-1.8.1-9.5.1-11 0-.9-.1-3.6-2.7-3.6-2.5 0-2.8 1.9-2.9 3.8-.1 1.8 0 9.3 0 11-.6.4-1.7 1.5-1.7 3.9 0 1.1.5 2.2 1.3 3 .9.9 2.1 1.3 3.3 1.3 2.2 0 4.6-1.5 4.6-4.7-.1-2.3-1.3-3.4-2-3.7zm-2.7 7.1c-1 0-1.9-.3-2.5-1-.6-.6-.9-1.4-.9-2.1 0-2.4 1.3-3 1.4-3.1.2-.1.4-.3.4-.5 0-.1-.1-9.4 0-11.3.1-2.3.6-2.6 1.7-2.6.9 0 1.5.4 1.5 2.5 0 1.6-.1 11.3-.1 11.4 0 .3.2.5.4.6 0 0 1.5.5 1.5 2.8s-1.7 3.3-3.4 3.3zm-4-16.1c0-.3-.3-.6-.6-.6H10v-.6c0-.3-.3-.6-.6-.6s-.6.3-.6.6v.7h-.6c-.3 0-.6.3-.6.6s.3.6.6.6h.7v.7c0 .3.3.6.6.6s.6-.3.6-.6v-.7h.7c.2-.1.5-.3.5-.7z"/><path d="M22.3 15.9h-2.5c-.3 0-.6.3-.6.6s.3.6.6.6h2.5c.3 0 .6-.3.6-.6s-.3-.6-.6-.6zm-6.4 4.4l-.1-13.6c0-.3-.3-.6-.6-.6s-.6.3-.6.6l.1 13.6c-.9.3-1.6 1.1-1.6 2.1 0 1.2 1 2.2 2.2 2.2s2.2-1 2.2-2.2c.1-.9-.6-1.8-1.6-2.1zm-.6 3.2c-.6 0-1-.5-1-1s.5-1 1-1c.6 0 1 .5 1 1s-.4 1-1 1z"/></g></svg>