<svg version="1.1" id="Layer_1" xmlns="http://www.w3.org/2000/svg" x="0" y="0" viewBox="0 0 30 30" xml:space="preserve"><path fill="#FFF" d="M21.8 10.2c-1.7 0-2.9.4-3.4 1.3-.2.4-.2.9 0 1.4-.1.1-.2.1-.3.2-.2.1-.6.1-1-.1s-.8-.5-1.1-1.4c-.4-1.3.2-2.4.4-2.8.4.3 1 .5 1.9.5h.2c1.5 0 2.3-.6 2.7-.9.2 0 .5-.1.9 0 .6.1 1.5-.1 1.9-.7.2-.4.2-.8-.1-1.2-.7-1-2.1-2-6.3-2-2.4 0-4 .5-4.7 1.4-.3.5-.4 1-.2 1.6.3 1 1.5 1.2 2.5 1.1-.3.4-.7.9-1.3 1.5-.5.5-.9.7-1.2.8 0-.1 0-.3-.1-.4-.6-1.1-2.6-2-5.4-2-1.7 0-2.9.4-3.4 1.3-.3.5-.2 1.1.1 1.6.7 1.1 2 1 2.8.7.6.3 2 1 3.3 1h.3c.9-.1 1.4-.4 1.7-.8.2 0 .6.1 1.1.3.6.3.9 1.2 1.2 3 .2 1.4-1.5 2.4-3.2 3.3-1.3.7-1.7 1.8-1.8 2.6H6.8c-.3 0-.6.3-.6.6s.3.6.6.6h.8l1 4.4c.1.3.3.5.6.5h11.7c.3 0 .5-.2.6-.5l1-4.4h.5c.3 0 .6-.3.6-.6s-.3-.6-.6-.6h-7.2c-.2-.2-.6-.5-.7-.9 0-.1 0-.3.3-.6 1.2-1.2 4.4-2.5 4.4-2.5.3-.1.4-.4.3-.7-.1-.3-.4-.5-.7-.4l-1.1.3c-.2.1-.5.1-.8-.1-.2-.2-.3-.6-.3-1.1.1-.6.8-1.2 1.4-1.5l.6-.3c.7.3 1.4.2 2 0 .6.3 2 1 3.3 1h.3c1.1-.1 1.6-.6 1.9-1 .3-.5.4-1.1.3-1.4-.4-1.3-2.5-2.1-5.2-2.1zm-10.6 1.2c-.2.2-.5.4-1 .4-1.4.1-3.1-1-3.1-1-.1-.1-.2-.1-.3-.1-.1 0-.2 0-.3.1 0 0-1.1.5-1.5-.1-.2-.2-.1-.4-.1-.4.2-.3.9-.7 2.3-.6 2.8.1 4 .9 4.1 1.3 0 0 0 .2-.1.4zm2.5-4.3c-.1-.2 0-.4.1-.5.2-.2.9-.9 3.7-.9 3.5 0 4.7.8 5.3 1.5-.1.1-.3.1-.6.1-.8-.2-1.5 0-1.6 0-.1 0-.2.1-.3.2 0 0-.7.7-2.1.6-1.2 0-1.5-.5-1.5-.5 0-.2-.1-.3-.3-.4-.1-.1-.3-.1-.5 0-.7.3-2 .4-2.2-.1zm6.7 19.2H9.6l-.8-3.4h12.3l-.7 3.4zm-5.9-7.1c-.6.6-.6 1.2-.6 1.6 0 .3.1.5.3.7h-3.7c.1-.5.4-1.1 1.1-1.5 1.6-.8 4.2-2.2 3.8-4.6-.3-1.8-.7-3.2-1.7-3.8.2-.2.5-.4.7-.6l.1-.1c0 .3.1.7.2 1.1.3 1 .9 1.7 1.7 2.1.1 0 .1 0 .2.1-.3.4-.6.8-.6 1.3-.1.9.2 1.7.7 2.1-.7.5-1.6 1-2.2 1.6zm11.2-6.1c-.2.2-.5.4-1 .4-1.4.1-3.1-1-3.1-1-.1-.1-.2-.1-.3-.1-.1 0-.2 0-.3.1 0 0-1.1.5-1.5-.1-.2-.3-.1-.4-.1-.4.2-.3.9-.7 2.3-.6 2.8.1 4 .9 4.1 1.3.1 0 0 .2-.1.4z"/></svg>