<svg version="1.1" id="Layer_1" xmlns="http://www.w3.org/2000/svg" x="0" y="0" viewBox="0 0 30 30" xml:space="preserve"><path fill="#FFF" d="M25.1 7.3c-.2 0-4.4-.9-6.6-.2-1.3.5-2.3 1.3-2.8 2.4-.4.9-.4 1.8 0 2.8l-.9.9c-.2-1.3-.7-2.3-1.1-2.8.4-.8.5-2.3-1-3.8-.9-.9-2.5-2.2-2.6-2.3-.1-.1-.3-.1-.5-.1-.2.1-.3.3-.3.5 0 .1-.7 2.9.4 4.6.8 1.3 2.3 1.9 3.2 1.9.3.4.7 1.2.8 2.1-.7-.3-1.8-.6-3-.4-.5-.7-1.4-1.6-2.7-1.2-1.6.5-3.2 2-3.2 2-.1.1-.2.4-.2.6 0 .2.2.4.4.4.2.1 2 .6 3.2.6h.3c1.1-.1 1.9-.9 2.2-1.3h.1c1.4-.2 2.9.4 3 .5v4.1H8c-.3 0-.6.3-.6.6s.3.6.6.6h5.8v1.4l-.9 1-2-.9c-.3-.1-.6 0-.8.3-.1.3 0 .6.3.8l1.7.7-2.8 3.1c-.2.2-.2.6 0 .8.1.1.3.2.4.2.2 0 .3-.1.4-.2l1.3-1.4.1.7c0 .3.3.5.6.5h.1c.3 0 .6-.3.5-.6l-.2-1.8 1.1-1.2.9-.9.6.7-.3 1.8c-.1.3.2.6.5.7h.1c.3 0 .5-.2.6-.5l.1-.8 2.1 2.5c.1.1.3.2.5.2.1 0 .3 0 .4-.1.2-.2.3-.6.1-.8l-1.1-1.3 1.6-.2c.3 0 .6-.3.5-.7 0-.3-.3-.6-.7-.5l-2.3.3-2-2.4v-1.4h6.1c.3 0 .6-.3.6-.6s-.3-.6-.6-.6h-6.1v-3.7c.2-.3.7-.9 1.4-1.6.5.7 1.2 1.2 2.1 1.5.4.1.7.1 1.1.1.9 0 1.8-.3 2.7-.8 2-1.3 3.2-5.8 3.4-6.3 0-.2 0-.3-.1-.5-.4.1-.6 0-.7 0zM8.3 14.2c-.5.1-1.3-.1-2-.3.5-.4 1.2-.8 1.9-1 .7-.2 1.1.3 1.3.6-.2.2-.7.6-1.2.7zm2.4-5.5c-.5-.8-.5-2-.4-2.8.5.4 1.2 1 1.7 1.5 1.2 1.2.9 2.2.7 2.5-.5 0-1.5-.3-2-1.2zm10.8 4.6c-.9.6-1.9.8-2.8.5-.6-.2-1.2-.6-1.5-1.2.2-.2.4-.4.6-.5 1.5-1.1 4.5-1.9 4.5-1.9.3-.1.5-.4.4-.7-.1-.4-.4-.6-.7-.5-.1 0-3.2.9-4.9 2.1-.1.1-.3.2-.4.3-.1-.5-.1-1 .1-1.5.3-.8 1.1-1.4 2.1-1.8.5 0 1.2-.1 1.9-.1 1.2 0 2.5.2 3.4.3-.5 1.5-1.5 4.2-2.7 5z"/></svg>