<svg version="1.1" id="Layer_1" xmlns="http://www.w3.org/2000/svg" x="0" y="0" viewBox="0 0 30 30" xml:space="preserve"><path fill="#FFF" d="M28.5 15.6c-1.1-1.6-2.7-1.6-3.8-1.2-.1-1-.5-2.6-2.3-3.7-1.9-1.2-3.8-.7-4.8-.1-.7-.9-2.8-2.9-6.6-2.4-5 .6-6 4.4-6.2 6.1-1.1-.3-2.8-.3-4 1.2-.7.9-.9 1.8-.8 2.7.3 1.8 1.9 2.9 2 3 .1.1.2.1.3.1l24.6-.3c.1 0 .3-.1.3-.1.2-.1 2.9-2.8 1.3-5.3zM26.7 20l-7.1.1v-1.2l1.7-1.4c.2-.2.2-.5.1-.7-.2-.2-.5-.2-.7-.1l-1 .9v-2.4c0-.3-.2-.5-.5-.5s-.5.2-.5.5v4.9l-6.6.1v-4l1.5-1.3c.2-.2.2-.5.1-.7-.2-.2-.5-.2-.7-.1l-.8.7v-1.6c0-.3-.2-.5-.5-.5s-.5.2-.5.5v4.4l-1.4-.9c-.2-.1-.5-.1-.7.2-.1.2-.1.5.2.7l2 1.2v1.4l-8.5.1C2.2 20 1.2 19.1 1 18c-.1-.7.1-1.3.6-2 .6-.8 1.4-1 2-1 .8 0 1.4.3 1.4.4.2.1.3.1.5 0s.2-.3.2-.4c0-.2 0-5.2 5.4-5.8 4.1-.5 5.9 2.3 5.9 2.4.1.1.2.2.3.2.1 0 .3 0 .4-.1 0 0 1.9-1.5 4.1-.1 2.1 1.4 1.8 3.5 1.8 3.6 0 .2.1.4.2.5.2.1.4.1.5 0 .2-.1 2-1.2 3.2.6 1.2 1.4-.3 3.2-.8 3.7z"/></svg>