<svg version="1.1" id="Layer_1" xmlns="http://www.w3.org/2000/svg" x="0" y="0" viewBox="0 0 30 30" xml:space="preserve"><path fill="#FFF" d="M13.7 21.1v3.7h-3.1c-.3 0-.6.3-.6.6s.3.6.6.6h7.5c.3 0 .6-.3.6-.6s-.3-.6-.6-.6h-3.3v-3.7c4.3-.3 7.7-3.9 7.7-8.2 0-4.5-3.7-8.2-8.2-8.2s-8.2 3.7-8.2 8.2c0 4.3 3.4 7.9 7.6 8.2zm.7-15.3c3.9 0 7.1 3.2 7.1 7.1 0 3.7-2.9 6.8-6.5 7v-2.6c.7 0 1.8-.2 2.7-1.1 1.3-1.2 1.5-2.9 1.5-3 0-.3-.2-.6-.5-.7-.3 0-.6.2-.7.5 0 0-.2 1.4-1.2 2.3-.7.6-1.4.8-1.9.8v-5.9c0-.3-.3-.6-.6-.6s-.6.3-.6.6v4.4c-.3 0-1.1-.1-1.7-.8-.7-.8-.8-2-.8-2 0-.3-.3-.6-.6-.5-.3 0-.6.3-.5.6 0 .1.1 1.6 1.1 2.7.9 1 2 1.2 2.6 1.2v4.1c-3.6-.3-6.4-3.4-6.4-7-.1-3.9 3.1-7.1 7-7.1z"/></svg>