<svg version="1.1" id="Layer_1" xmlns="http://www.w3.org/2000/svg" x="0" y="0" viewBox="0 0 30 30" xml:space="preserve"><path fill="#FFF" d="M22.6 12.8h-7.2v-1.2c.9-.1 2.5-.4 3.6-1.4 1.6-1.6 1.5-4.2 1.5-4.3 0-.4-.3-.7-.7-.7h-.2c-.6 0-2.7.1-4.1 1.5-.2.2-.4.5-.6.8-.3-.7-.7-1.3-1.2-1.8-1.7-1.8-4.3-2-5.1-2h-.2c-.4.1-.7.4-.7.7 0 .3-.1 3.4 1.8 5.3 1.3 1.3 3.3 1.7 4.4 1.8v1.2H6.8c-.4 0-.7.3-.7.7v3.4c0 .4.3.7.7.7h.7L9 22.6v.1l1 3.5c.1.3.4.5.7.5H19c.3 0 .6-.2.7-.5l2.5-8.7h.5c.4 0 .7-.3.7-.7v-3.4c0-.3-.4-.6-.8-.6zm-6-5.2c.7-.7 1.7-.9 2.4-1-.1.7-.3 1.7-1 2.4s-1.7.9-2.4 1c0-.6.3-1.7 1-2.4zm-6 1.1c-1-1-1.3-2.5-1.4-3.5.9.1 2.5.4 3.5 1.4 1 1 1.3 2.5 1.4 3.5-1-.1-2.5-.4-3.5-1.4zm7.8 16.7h-7.2l-.5-1.7v-.1l-1.7-6h11.7l-2.3 7.8zm3.5-9.2H7.5v-2h14.4v2z"/></svg>