<svg xmlns="http://www.w3.org/2000/svg" width="157" height="189"><path d="M7.85 173.25a7.875 7.875 0 000 15.75h141.3a7.875 7.875 0 000-15.75h-62.8v-70.875h15.7A55.038 55.038 0 00157 47.25a7.863 7.863 0 00-7.85-7.875H125.6a54.687 54.687 0 00-39.25 16.616v-.866A55.038 55.038 0 0031.4 0H7.85A7.863 7.863 0 000 7.875 55.038 55.038 0 0054.95 63h15.7v32.366A54.687 54.687 0 0031.4 78.75H7.85A7.863 7.863 0 000 86.625a55.038 55.038 0 0054.95 55.125h15.7v31.5H7.85zM125.6 55.125h14.915a39.281 39.281 0 01-38.465 31.5H87.135a39.281 39.281 0 0138.465-31.5zM54.95 47.25a39.281 39.281 0 01-38.465-31.5H31.4a39.281 39.281 0 0138.465 31.5H54.95zm0 78.75a39.281 39.281 0 01-38.465-31.5H31.4A39.281 39.281 0 0169.865 126H54.95z" fill="#ebebeb" fill-rule="evenodd"/></svg>